<svg width="28" height="28" viewBox="0 0 28 28" fill="none" xmlns="http://www.w3.org/2000/svg">
<mask id="mask0_1_146" style="mask-type:luminance" maskUnits="userSpaceOnUse" x="0" y="0" width="28" height="28">
<path d="M28 0H0V28H28V0Z" fill="white"/>
</mask>
<g mask="url(#mask0_1_146)">
<path fill-rule="evenodd" clip-rule="evenodd" d="M14 28.0001C21.732 28.0001 28 21.732 28 14C28 6.26802 21.732 0 14 0C6.26802 0 0 6.26802 0 14C0 21.732 6.26802 28.0001 14 28.0001Z" fill="#D8D8D8"/>
<mask id="mask1_1_146" style="mask-type:alpha" maskUnits="userSpaceOnUse" x="0" y="0" width="28" height="28">
<path fill-rule="evenodd" clip-rule="evenodd" d="M14 28.0001C21.732 28.0001 28 21.732 28 14C28 6.26802 21.732 0 14 0C6.26802 0 0 6.26802 0 14C0 21.732 6.26802 28.0001 14 28.0001Z" fill="white"/>
</mask>
<g mask="url(#mask1_1_146)">
<path d="M35 0H-7V28H35V0Z" fill="#003399"/>
<path fill-rule="evenodd" clip-rule="evenodd" d="M13.6141 3.1213L13.9997 1.92993L14.3853 3.1213H15.64L14.627 3.858L15.0127 5.05513L13.9997 4.31843L12.9867 5.05513L13.3724 3.858L12.3594 3.1213H13.6141ZM13.9997 22.6496L14.3853 23.841H15.64L14.627 24.5776L15.0127 25.7748L13.9997 25.0381L12.9867 25.7748L13.3724 24.5776L12.3594 23.841H13.6141L13.9997 22.6496ZM3.6403 14.6782L4.65326 15.415L4.26763 14.2178L5.28059 13.4811H4.02591L3.6403 12.2897L3.25469 13.4811H2L3.01296 14.2178L2.62734 15.415L3.6403 14.6782ZM8.43494 4.50843L8.82055 3.31706L9.20615 4.50843H10.4608L9.44788 5.25088L9.83351 6.44226L8.82055 5.70557L7.80758 6.44226L8.19321 5.25088L7.18025 4.50843H8.43494ZM5.02777 7.10984L4.64216 8.30121H3.38747L4.40043 9.03791L4.01481 10.235L5.02777 9.49834L6.04073 10.235L5.6551 9.03791L6.66806 8.30121H5.41914L5.02777 7.10984ZM5.02777 17.4697L5.41914 18.6611H6.66806L5.6551 19.3977L6.04073 20.5949L5.02777 19.8581L4.01481 20.5949L4.40043 19.3977L3.38747 18.6611H4.64216L5.02777 17.4697ZM9.20615 22.4538L8.82055 21.2624L8.43494 22.4538H7.18025L8.19321 23.1905L7.80758 24.3876L8.82055 23.6452L9.83351 24.3876L9.44788 23.1905L10.4608 22.4538H9.20615ZM24.7459 13.4811H26.0005L24.9877 14.2178L25.3732 15.415L24.3602 14.6782L23.3474 15.415L23.7329 14.2178L22.7199 13.4811H23.9746L24.3602 12.2897L24.7459 13.4811ZM19.18 3.31706L18.7944 4.50843H17.5397L18.5527 5.25088L18.1671 6.44226L19.18 5.70557L20.193 6.44226L19.8074 5.25088L20.8203 4.50843H19.5657L19.18 3.31706ZM21.961 10.235L22.3465 9.03791L21.3335 8.30121H22.5826L22.9738 7.10984L23.3595 8.30121H24.6141L23.6013 9.03791L23.9868 10.235L22.9738 9.49834L21.961 10.235ZM23.3595 18.6611L22.9738 17.4697L22.5826 18.6611H21.3335L22.3465 19.3977L21.961 20.5949L22.9738 19.8581L23.9868 20.5949L23.6013 19.3977L24.6141 18.6611H23.3595ZM19.18 21.2624L19.5657 22.4538H20.8203L19.8074 23.1905L20.193 24.3876L19.18 23.6452L18.1671 24.3876L18.5527 23.1905L17.5397 22.4538H18.7944L19.18 21.2624Z" fill="#FFCC00"/>
<path d="M13.9997 1.92979L14.1424 1.8836C14.1224 1.82171 14.0648 1.77979 13.9997 1.77979C13.9347 1.77979 13.877 1.82171 13.857 1.8836L13.9997 1.92979ZM13.6141 3.12116V3.27116C13.6791 3.27116 13.7368 3.22924 13.7568 3.16735L13.6141 3.12116ZM14.3853 3.12116L14.2426 3.16735C14.2626 3.22924 14.3203 3.27116 14.3853 3.27116V3.12116ZM15.64 3.12116L15.7282 3.24247C15.7808 3.20426 15.8027 3.13656 15.7827 3.07478C15.7626 3.01299 15.705 2.97116 15.64 2.97116V3.12116ZM14.627 3.85786L14.5388 3.73655C14.4864 3.77468 14.4644 3.84215 14.4843 3.90386L14.627 3.85786ZM15.0127 5.05499L14.9244 5.1763C14.977 5.21449 15.0481 5.21456 15.1007 5.17647C15.1532 5.13839 15.1754 5.0708 15.1554 5.009L15.0127 5.05499ZM13.9997 4.31828L14.0879 4.19698C14.0353 4.15872 13.9641 4.15872 13.9115 4.19698L13.9997 4.31828ZM12.9867 5.05499L12.844 5.009C12.8241 5.0708 12.8462 5.13839 12.8988 5.17647C12.9513 5.21456 13.0225 5.21449 13.075 5.1763L12.9867 5.05499ZM13.3724 3.85786L13.5151 3.90386C13.535 3.84215 13.513 3.77468 13.4606 3.73655L13.3724 3.85786ZM12.3594 3.12116V2.97116C12.2944 2.97116 12.2369 3.01299 12.2168 3.07478C12.1967 3.13656 12.2186 3.20426 12.2712 3.24247L12.3594 3.12116ZM14.3853 23.8409L14.2426 23.8871C14.2626 23.949 14.3203 23.9909 14.3853 23.9909V23.8409ZM13.9997 22.6495L14.1424 22.6033C14.1224 22.5414 14.0648 22.4995 13.9997 22.4995C13.9347 22.4995 13.877 22.5414 13.857 22.6033L13.9997 22.6495ZM15.64 23.8409L15.7282 23.9622C15.7808 23.924 15.8027 23.8563 15.7827 23.7945C15.7626 23.7327 15.705 23.6909 15.64 23.6909V23.8409ZM14.627 24.5775L14.5388 24.4562C14.4864 24.4943 14.4644 24.5618 14.4843 24.6235L14.627 24.5775ZM15.0127 25.7747L14.9244 25.896C14.9769 25.9342 15.0481 25.9343 15.1007 25.8962C15.1532 25.8581 15.1754 25.7905 15.1554 25.7287L15.0127 25.7747ZM13.9997 25.038L14.0879 24.9167C14.0353 24.8784 13.9641 24.8784 13.9115 24.9167L13.9997 25.038ZM12.9867 25.7747L12.844 25.7287C12.8241 25.7905 12.8462 25.8581 12.8988 25.8962C12.9514 25.9343 13.0225 25.9342 13.075 25.896L12.9867 25.7747ZM13.3724 24.5775L13.5151 24.6235C13.535 24.5618 13.513 24.4943 13.4606 24.4562L13.3724 24.5775ZM12.3594 23.8409V23.6909C12.2944 23.6909 12.2369 23.7327 12.2168 23.7945C12.1967 23.8563 12.2186 23.924 12.2712 23.9622L12.3594 23.8409ZM13.6141 23.8409V23.9909C13.6791 23.9909 13.7368 23.949 13.7568 23.8871L13.6141 23.8409ZM4.65325 15.4149L4.56502 15.5362C4.61752 15.5744 4.68864 15.5745 4.74123 15.5364C4.79382 15.4983 4.81593 15.4307 4.79602 15.3689L4.65325 15.4149ZM3.64029 14.6781L3.72852 14.5568C3.67592 14.5186 3.60466 14.5186 3.55206 14.5568L3.64029 14.6781ZM4.26762 14.2177L4.1794 14.0964C4.12698 14.1345 4.10497 14.202 4.12485 14.2637L4.26762 14.2177ZM5.28058 13.481L5.36881 13.6023C5.42135 13.5641 5.44332 13.4964 5.42323 13.4346C5.40314 13.3728 5.34556 13.331 5.28058 13.331V13.481ZM4.0259 13.481L3.88318 13.5272C3.90321 13.5891 3.96085 13.631 4.0259 13.631V13.481ZM3.64029 12.2896L3.783 12.2434C3.76297 12.1816 3.70533 12.1396 3.64029 12.1396C3.57524 12.1396 3.51761 12.1816 3.49758 12.2434L3.64029 12.2896ZM3.25468 13.481V13.631C3.31973 13.631 3.37736 13.5891 3.39739 13.5272L3.25468 13.481ZM1.99999 13.481V13.331C1.93502 13.331 1.87743 13.3728 1.85734 13.4346C1.83725 13.4964 1.85922 13.5641 1.91176 13.6023L1.99999 13.481ZM3.01295 14.2177L3.15573 14.2637C3.1756 14.202 3.1536 14.1345 3.10118 14.0964L3.01295 14.2177ZM2.62733 15.4149L2.48455 15.3689C2.46464 15.4307 2.48676 15.4983 2.53934 15.5364C2.59193 15.5745 2.66305 15.5744 2.71556 15.5362L2.62733 15.4149ZM8.82054 3.31692L8.96325 3.27073C8.94322 3.20884 8.88558 3.16692 8.82054 3.16692C8.75549 3.16692 8.69785 3.20884 8.67782 3.27073L8.82054 3.31692ZM8.43493 4.50829V4.65829C8.49997 4.65829 8.55761 4.61637 8.57764 4.55449L8.43493 4.50829ZM9.20614 4.50829L9.06343 4.55449C9.08346 4.61637 9.1411 4.65829 9.20614 4.65829V4.50829ZM10.4608 4.50829L10.5495 4.62928C10.6018 4.59093 10.6236 4.5233 10.6034 4.46164C10.5832 4.39999 10.5257 4.35829 10.4608 4.35829V4.50829ZM9.44787 5.25074L9.3592 5.12976C9.30702 5.16799 9.28524 5.23539 9.30516 5.29694L9.44787 5.25074ZM9.8335 6.44212L9.74527 6.56343C9.79781 6.60163 9.86898 6.60169 9.92157 6.56354C9.97416 6.5254 9.99621 6.45773 9.97621 6.39593L9.8335 6.44212ZM8.82054 5.70543L8.90876 5.58412C8.85616 5.54587 8.78491 5.54587 8.73231 5.58412L8.82054 5.70543ZM7.80757 6.44212L7.66486 6.39593C7.64486 6.45773 7.66691 6.5254 7.7195 6.56354C7.77209 6.60169 7.84326 6.60163 7.8958 6.56343L7.80757 6.44212ZM8.1932 5.25074L8.33591 5.29694C8.35583 5.23539 8.33405 5.16799 8.28187 5.12976L8.1932 5.25074ZM7.18024 4.50829V4.35829C7.11537 4.35829 7.05785 4.39999 7.03768 4.46164C7.0175 4.5233 7.03924 4.59093 7.09156 4.62928L7.18024 4.50829ZM4.64215 8.30107V8.45107C4.7072 8.45107 4.76483 8.40914 4.78486 8.34725L4.64215 8.30107ZM5.02776 7.1097L5.17026 7.06288C5.15 7.0012 5.09235 6.95956 5.02743 6.9597C4.9625 6.95984 4.90504 7.00174 4.88505 7.06351L5.02776 7.1097ZM3.38746 8.30107V8.15106C3.32249 8.15106 3.2649 8.19289 3.24481 8.25467C3.22472 8.31646 3.24669 8.38417 3.29923 8.42238L3.38746 8.30107ZM4.40042 9.03777L4.5432 9.08376C4.56307 9.02207 4.54107 8.95459 4.48865 8.91646L4.40042 9.03777ZM4.0148 10.2349L3.87202 10.1889C3.85211 10.2507 3.87423 10.3183 3.92681 10.3564C3.97939 10.3945 4.05051 10.3944 4.10302 10.3562L4.0148 10.2349ZM5.02776 9.4982L5.11598 9.37687C5.06339 9.33862 4.99213 9.33862 4.93953 9.37687L5.02776 9.4982ZM6.04072 10.2349L5.95249 10.3562C6.005 10.3944 6.07612 10.3945 6.1287 10.3564C6.18129 10.3183 6.2034 10.2507 6.18349 10.1889L6.04072 10.2349ZM5.65509 9.03777L5.56687 8.91646C5.51445 8.95459 5.49244 9.02207 5.51232 9.08376L5.65509 9.03777ZM6.66805 8.30107L6.75628 8.42238C6.80882 8.38417 6.83079 8.31646 6.8107 8.25467C6.79061 8.19289 6.73302 8.15106 6.66805 8.15106V8.30107ZM5.41913 8.30107L5.27662 8.34789C5.29685 8.40945 5.35433 8.45107 5.41913 8.45107V8.30107ZM5.41913 18.661L5.27662 18.7078C5.29685 18.7694 5.35433 18.811 5.41913 18.811V18.661ZM5.02776 17.4696L5.17026 17.4228C5.15 17.3611 5.09235 17.3195 5.02743 17.3196C4.9625 17.3197 4.90504 17.3616 4.88505 17.4234L5.02776 17.4696ZM6.66805 18.661L6.75627 18.7823C6.80882 18.7441 6.83079 18.6764 6.8107 18.6146C6.79061 18.5528 6.73303 18.511 6.66805 18.511V18.661ZM5.65509 19.3976L5.56688 19.2762C5.51445 19.3144 5.49244 19.3818 5.51232 19.4435L5.65509 19.3976ZM6.04072 20.5948L5.95249 20.7161C6.005 20.7543 6.07611 20.7544 6.1287 20.7163C6.18128 20.6782 6.2034 20.6106 6.18349 20.5488L6.04072 20.5948ZM5.02776 19.858L5.11599 19.7367C5.06339 19.6985 4.99213 19.6985 4.93953 19.7367L5.02776 19.858ZM4.0148 20.5948L3.87202 20.5488C3.85211 20.6106 3.87423 20.6782 3.92681 20.7163C3.9794 20.7544 4.05052 20.7543 4.10303 20.7161L4.0148 20.5948ZM4.40042 19.3976L4.5432 19.4435C4.56307 19.3818 4.54106 19.3144 4.48864 19.2762L4.40042 19.3976ZM3.38746 18.661V18.511C3.32249 18.511 3.2649 18.5528 3.24481 18.6146C3.22472 18.6764 3.24669 18.7441 3.29924 18.7823L3.38746 18.661ZM4.64215 18.661V18.811C4.7072 18.811 4.76483 18.7691 4.78486 18.7072L4.64215 18.661ZM8.82054 21.2623L8.96325 21.2161C8.94322 21.1542 8.88558 21.1123 8.82054 21.1123C8.75549 21.1123 8.69785 21.1542 8.67782 21.2161L8.82054 21.2623ZM9.20614 22.4537L9.06343 22.4999C9.08346 22.5618 9.1411 22.6037 9.20614 22.6037V22.4537ZM8.43493 22.4537V22.6037C8.49997 22.6037 8.55761 22.5618 8.57764 22.4999L8.43493 22.4537ZM7.18024 22.4537V22.3037C7.11527 22.3037 7.05768 22.3455 7.03759 22.4073C7.0175 22.4691 7.03947 22.5368 7.09201 22.575L7.18024 22.4537ZM8.1932 23.1904L8.33597 23.2364C8.35585 23.1747 8.33385 23.1073 8.28143 23.0691L8.1932 23.1904ZM7.80757 24.3875L7.6648 24.3415C7.64486 24.4034 7.66707 24.4711 7.71981 24.5092C7.77255 24.5472 7.8438 24.5469 7.89625 24.5085L7.80757 24.3875ZM8.82054 23.6451L8.90921 23.5241C8.85642 23.4854 8.78465 23.4854 8.73186 23.5241L8.82054 23.6451ZM9.8335 24.3875L9.74482 24.5085C9.79727 24.5469 9.86852 24.5472 9.92126 24.5092C9.974 24.4711 9.99621 24.4034 9.97627 24.3415L9.8335 24.3875ZM9.44787 23.1904L9.35964 23.0691C9.30722 23.1073 9.28522 23.1747 9.3051 23.2364L9.44787 23.1904ZM10.4608 22.4537L10.5491 22.575C10.6016 22.5368 10.6236 22.4691 10.6035 22.4073C10.5834 22.3455 10.5258 22.3037 10.4608 22.3037V22.4537ZM26.0005 13.481L26.0887 13.6023C26.1413 13.5641 26.1632 13.4964 26.1431 13.4346C26.1231 13.3728 26.0655 13.331 26.0005 13.331V13.481ZM24.7459 13.481L24.6032 13.5272C24.6233 13.5891 24.6809 13.631 24.7459 13.631V13.481ZM24.9877 14.2177L24.8994 14.0964C24.847 14.1345 24.825 14.202 24.8449 14.2637L24.9877 14.2177ZM25.3732 15.4149L25.285 15.5362C25.3375 15.5744 25.4086 15.5745 25.4612 15.5364C25.5138 15.4983 25.5359 15.4307 25.516 15.3689L25.3732 15.4149ZM24.3602 14.6781L24.4484 14.5568C24.3958 14.5186 24.3246 14.5186 24.272 14.5568L24.3602 14.6781ZM23.3474 15.4149L23.2046 15.3689C23.1847 15.4307 23.2068 15.4983 23.2594 15.5364C23.312 15.5745 23.3831 15.5744 23.4356 15.5362L23.3474 15.4149ZM23.7329 14.2177L23.8757 14.2637C23.8956 14.202 23.8736 14.1345 23.8211 14.0964L23.7329 14.2177ZM22.7199 13.481V13.331C22.6549 13.331 22.5973 13.3728 22.5773 13.4346C22.5572 13.4964 22.5791 13.5641 22.6317 13.6023L22.7199 13.481ZM23.9746 13.481V13.631C24.0397 13.631 24.0973 13.5891 24.1174 13.5272L23.9746 13.481ZM24.3602 12.2896L24.5029 12.2434C24.4829 12.1815 24.4252 12.1396 24.3602 12.1396C24.2951 12.1396 24.2375 12.1816 24.2175 12.2434L24.3602 12.2896ZM18.7944 4.50829V4.65829C18.8594 4.65829 18.9171 4.61637 18.9371 4.55448L18.7944 4.50829ZM19.18 3.31692L19.3227 3.27072C19.3026 3.20883 19.245 3.16692 19.1799 3.16692C19.1149 3.16692 19.0573 3.20885 19.0372 3.27074L19.18 3.31692ZM17.5397 4.50829V4.35829C17.4748 4.35829 17.4173 4.39999 17.3971 4.46165C17.3769 4.5233 17.3987 4.59093 17.451 4.62928L17.5397 4.50829ZM18.5527 5.25074L18.6954 5.29693C18.7153 5.23538 18.6935 5.16799 18.6413 5.12976L18.5527 5.25074ZM18.1671 6.44212L18.0244 6.39593C18.0044 6.45774 18.0265 6.5254 18.0791 6.56355C18.1316 6.60169 18.2028 6.60163 18.2553 6.56342L18.1671 6.44212ZM19.18 5.70543L19.2682 5.58412C19.2156 5.54587 19.1443 5.54587 19.0917 5.58413L19.18 5.70543ZM20.193 6.44212L20.1047 6.56343C20.1573 6.60163 20.2285 6.60168 20.281 6.56354C20.3336 6.5254 20.3557 6.45774 20.3357 6.39593L20.193 6.44212ZM19.8074 5.25074L19.7187 5.12977C19.6666 5.168 19.6448 5.23539 19.6647 5.29693L19.8074 5.25074ZM20.8203 4.50829L20.9089 4.62927C20.9612 4.59092 20.983 4.52329 20.9628 4.46164C20.9426 4.39999 20.8851 4.35829 20.8203 4.35829V4.50829ZM19.5657 4.50829L19.423 4.5545C19.443 4.61638 19.5006 4.65829 19.5657 4.65829V4.50829ZM22.3465 9.03777L22.4893 9.08376C22.5092 9.02206 22.4872 8.95458 22.4348 8.91646L22.3465 9.03777ZM21.961 10.2349L21.8182 10.1889C21.7983 10.2507 21.8204 10.3183 21.873 10.3564C21.9256 10.3945 21.9967 10.3944 22.0492 10.3562L21.961 10.2349ZM21.3335 8.30107V8.15106C21.2685 8.15106 21.211 8.1929 21.1909 8.25469C21.1708 8.31647 21.1928 8.38417 21.2453 8.42238L21.3335 8.30107ZM22.5826 8.30107V8.45107C22.6474 8.45107 22.7049 8.40945 22.7251 8.34787L22.5826 8.30107ZM22.9738 7.1097L23.1165 7.06349C23.0965 7.00173 23.0391 6.95983 22.9741 6.9597C22.9092 6.95956 22.8516 7.00121 22.8313 7.0629L22.9738 7.1097ZM23.3595 8.30107L23.2168 8.34727C23.2369 8.40914 23.2945 8.45107 23.3595 8.45107V8.30107ZM24.6141 8.30107L24.7023 8.42238C24.7549 8.38416 24.7769 8.31645 24.7568 8.25467C24.7367 8.19289 24.6791 8.15106 24.6141 8.15106V8.30107ZM23.6013 9.03777L23.513 8.91646C23.4606 8.95458 23.4386 9.02206 23.4585 9.08376L23.6013 9.03777ZM23.9868 10.2349L23.8986 10.3562C23.9511 10.3944 24.0222 10.3945 24.0748 10.3564C24.1274 10.3183 24.1495 10.2507 24.1296 10.1889L23.9868 10.2349ZM22.9738 9.4982L23.062 9.37687C23.0094 9.33862 22.9382 9.33863 22.8856 9.37689L22.9738 9.4982ZM22.9738 17.4696L23.1165 17.4234C23.0965 17.3616 23.0391 17.3197 22.9741 17.3196C22.9092 17.3195 22.8516 17.3611 22.8313 17.4228L22.9738 17.4696ZM23.3595 18.661L23.2168 18.7072C23.2369 18.7691 23.2945 18.811 23.3595 18.811V18.661ZM22.5826 18.661V18.811C22.6474 18.811 22.7049 18.7694 22.7251 18.7078L22.5826 18.661ZM21.3335 18.661V18.511C21.2685 18.511 21.211 18.5528 21.1909 18.6146C21.1708 18.6764 21.1928 18.7441 21.2453 18.7823L21.3335 18.661ZM22.3465 19.3976L22.4893 19.4435C22.5092 19.3818 22.4872 19.3144 22.4347 19.2762L22.3465 19.3976ZM21.961 20.5948L21.8182 20.5488C21.7983 20.6106 21.8204 20.6782 21.873 20.7163C21.9256 20.7544 21.9967 20.7543 22.0492 20.7161L21.961 20.5948ZM22.9738 19.858L23.062 19.7367C23.0094 19.6985 22.9382 19.6985 22.8856 19.7367L22.9738 19.858ZM23.9868 20.5948L23.8986 20.7161C23.9511 20.7543 24.0222 20.7544 24.0748 20.7163C24.1274 20.6782 24.1495 20.6106 24.1296 20.5488L23.9868 20.5948ZM23.6013 19.3976L23.5131 19.2762C23.4606 19.3144 23.4386 19.3818 23.4585 19.4435L23.6013 19.3976ZM24.6141 18.661L24.7023 18.7823C24.7549 18.7441 24.7769 18.6764 24.7568 18.6146C24.7367 18.5528 24.6791 18.511 24.6141 18.511V18.661ZM19.5657 22.4537L19.423 22.4999C19.443 22.5618 19.5006 22.6037 19.5657 22.6037V22.4537ZM19.18 21.2623L19.3227 21.2161C19.3026 21.1542 19.245 21.1123 19.1799 21.1123C19.1149 21.1123 19.0573 21.1542 19.0372 21.2161L19.18 21.2623ZM20.8203 22.4537L20.9085 22.575C20.961 22.5368 20.983 22.4691 20.9629 22.4073C20.9428 22.3455 20.8852 22.3037 20.8203 22.3037V22.4537ZM19.8074 23.1904L19.7192 23.0691C19.6668 23.1073 19.6448 23.1747 19.6646 23.2364L19.8074 23.1904ZM20.193 24.3875L20.1043 24.5085C20.1567 24.5469 20.228 24.5472 20.2807 24.5092C20.3335 24.4711 20.3557 24.4034 20.3357 24.3415L20.193 24.3875ZM19.18 23.6451L19.2686 23.5241C19.2158 23.4854 19.1441 23.4854 19.0913 23.5241L19.18 23.6451ZM18.1671 24.3875L18.0243 24.3415C18.0044 24.4034 18.0266 24.4711 18.0794 24.5092C18.1321 24.5472 18.2033 24.5469 18.2558 24.5085L18.1671 24.3875ZM18.5527 23.1904L18.6954 23.2364C18.7153 23.1747 18.6933 23.1073 18.6409 23.0691L18.5527 23.1904ZM17.5397 22.4537V22.3037C17.4747 22.3037 17.4171 22.3455 17.397 22.4073C17.3769 22.4691 17.3989 22.5368 17.4514 22.575L17.5397 22.4537ZM18.7944 22.4537V22.6037C18.8594 22.6037 18.9171 22.5618 18.9371 22.4999L18.7944 22.4537ZM13.857 1.8836L13.4714 3.07497L13.7568 3.16735L14.1424 1.97598L13.857 1.8836ZM14.528 3.07497L14.1424 1.8836L13.857 1.97598L14.2426 3.16735L14.528 3.07497ZM15.64 2.97116H14.3853V3.27116H15.64V2.97116ZM14.7153 3.97917L15.7282 3.24247L15.5518 2.99985L14.5388 3.73655L14.7153 3.97917ZM15.1554 5.009L14.7698 3.81187L14.4843 3.90386L14.8699 5.10098L15.1554 5.009ZM13.9115 4.4396L14.9244 5.1763L15.1009 4.93368L14.0879 4.19698L13.9115 4.4396ZM13.075 5.1763L14.0879 4.4396L13.9115 4.19698L12.8985 4.93368L13.075 5.1763ZM13.2296 3.81187L12.844 5.009L13.1295 5.10098L13.5151 3.90386L13.2296 3.81187ZM12.2712 3.24247L13.2841 3.97917L13.4606 3.73655L12.4476 2.99985L12.2712 3.24247ZM13.6141 2.97116H12.3594V3.27116H13.6141V2.97116ZM14.528 23.7947L14.1424 22.6033L13.857 22.6957L14.2426 23.8871L14.528 23.7947ZM15.64 23.6909H14.3853V23.9909H15.64V23.6909ZM14.7153 24.6988L15.7282 23.9622L15.5518 23.7196L14.5388 24.4562L14.7153 24.6988ZM15.1554 25.7287L14.7698 24.5315L14.4843 24.6235L14.8699 25.8207L15.1554 25.7287ZM13.9115 25.1593L14.9244 25.896L15.1009 25.6534L14.0879 24.9167L13.9115 25.1593ZM13.075 25.896L14.0879 25.1593L13.9115 24.9167L12.8985 25.6534L13.075 25.896ZM13.2296 24.5315L12.844 25.7287L13.1295 25.8207L13.5151 24.6235L13.2296 24.5315ZM12.2712 23.9622L13.2842 24.6988L13.4606 24.4562L12.4476 23.7196L12.2712 23.9622ZM13.6141 23.6909H12.3594V23.9909H13.6141V23.6909ZM13.857 22.6033L13.4714 23.7947L13.7568 23.8871L14.1424 22.6957L13.857 22.6033ZM4.74148 15.2936L3.72852 14.5568L3.55206 14.7994L4.56502 15.5362L4.74148 15.2936ZM4.12485 14.2637L4.51047 15.4609L4.79602 15.3689L4.4104 14.1717L4.12485 14.2637ZM5.19236 13.3597L4.1794 14.0964L4.35585 14.339L5.36881 13.6023L5.19236 13.3597ZM4.0259 13.631H5.28058V13.331H4.0259V13.631ZM3.49758 12.3358L3.88318 13.5272L4.16861 13.4348L3.783 12.2434L3.49758 12.3358ZM3.39739 13.5272L3.783 12.3358L3.49758 12.2434L3.11197 13.4348L3.39739 13.5272ZM1.99999 13.631H3.25468V13.331H1.99999V13.631ZM3.10118 14.0964L2.08822 13.3597L1.91176 13.6023L2.92473 14.339L3.10118 14.0964ZM2.7701 15.4609L3.15573 14.2637L2.87018 14.1717L2.48455 15.3689L2.7701 15.4609ZM3.55206 14.5568L2.53909 15.2936L2.71556 15.5362L3.72852 14.7994L3.55206 14.5568ZM8.67782 3.27073L8.29222 4.4621L8.57764 4.55449L8.96325 3.36311L8.67782 3.27073ZM9.34885 4.4621L8.96325 3.27073L8.67782 3.36311L9.06343 4.55449L9.34885 4.4621ZM10.4608 4.35829H9.20614V4.65829H10.4608V4.35829ZM9.53655 5.37173L10.5495 4.62928L10.3722 4.38731L9.3592 5.12976L9.53655 5.37173ZM9.97621 6.39593L9.59058 5.20455L9.30516 5.29694L9.69079 6.48831L9.97621 6.39593ZM8.73231 5.82675L9.74527 6.56343L9.92172 6.32081L8.90876 5.58412L8.73231 5.82675ZM7.8958 6.56343L8.90876 5.82675L8.73231 5.58412L7.71935 6.32081L7.8958 6.56343ZM8.05049 5.20455L7.66486 6.39593L7.95028 6.48831L8.33591 5.29694L8.05049 5.20455ZM7.09156 4.62928L8.10452 5.37173L8.28187 5.12976L7.26891 4.38731L7.09156 4.62928ZM8.43493 4.35829H7.18024V4.65829H8.43493V4.35829ZM4.78486 8.34725L5.17047 7.15589L4.88505 7.06351L4.49944 8.25488L4.78486 8.34725ZM3.38746 8.45107H4.64215V8.15106H3.38746V8.45107ZM4.48865 8.91646L3.47569 8.17976L3.29923 8.42238L4.31219 9.15907L4.48865 8.91646ZM4.15757 10.2809L4.5432 9.08376L4.25765 8.99178L3.87202 10.1889L4.15757 10.2809ZM4.93953 9.37687L3.92657 10.1136L4.10302 10.3562L5.11598 9.6195L4.93953 9.37687ZM6.12894 10.1136L5.11598 9.37687L4.93953 9.6195L5.95249 10.3562L6.12894 10.1136ZM5.51232 9.08376L5.89794 10.2809L6.18349 10.1889L5.79787 8.99178L5.51232 9.08376ZM6.57983 8.17976L5.56687 8.91646L5.74332 9.15907L6.75628 8.42238L6.57983 8.17976ZM5.41913 8.45107H6.66805V8.15106H5.41913V8.45107ZM4.88525 7.15651L5.27662 8.34789L5.56164 8.25426L5.17026 7.06288L4.88525 7.15651ZM5.56164 18.6142L5.17026 17.4228L4.88525 17.5164L5.27662 18.7078L5.56164 18.6142ZM6.66805 18.511H5.41913V18.811H6.66805V18.511ZM5.74331 19.5189L6.75627 18.7823L6.57984 18.5397L5.56688 19.2762L5.74331 19.5189ZM6.18349 20.5488L5.79787 19.3516L5.51232 19.4435L5.89794 20.6408L6.18349 20.5488ZM4.93953 19.9794L5.95249 20.7161L6.12895 20.4735L5.11599 19.7367L4.93953 19.9794ZM4.10303 20.7161L5.11599 19.9794L4.93953 19.7367L3.92657 20.4735L4.10303 20.7161ZM4.25764 19.3516L3.87202 20.5488L4.15757 20.6408L4.5432 19.4435L4.25764 19.3516ZM3.29924 18.7823L4.3122 19.5189L4.48864 19.2762L3.47568 18.5397L3.29924 18.7823ZM4.64215 18.511H3.38746V18.811H4.64215V18.511ZM4.88505 17.4234L4.49944 18.6148L4.78486 18.7072L5.17047 17.5158L4.88505 17.4234ZM8.67782 21.3085L9.06343 22.4999L9.34885 22.4075L8.96325 21.2161L8.67782 21.3085ZM8.57764 22.4999L8.96325 21.3085L8.67782 21.2161L8.29222 22.4075L8.57764 22.4999ZM7.18024 22.6037H8.43493V22.3037H7.18024V22.6037ZM8.28143 23.0691L7.26847 22.3324L7.09201 22.575L8.10497 23.3117L8.28143 23.0691ZM7.95035 24.4335L8.33597 23.2364L8.05042 23.1444L7.6648 24.3415L7.95035 24.4335ZM8.73186 23.5241L7.7189 24.2665L7.89625 24.5085L8.90921 23.766L8.73186 23.5241ZM9.92217 24.2665L8.90921 23.5241L8.73186 23.766L9.74482 24.5085L9.92217 24.2665ZM9.3051 23.2364L9.69072 24.4335L9.97627 24.3415L9.59065 23.1444L9.3051 23.2364ZM10.3726 22.3324L9.35964 23.0691L9.5361 23.3117L10.5491 22.575L10.3726 22.3324ZM9.20614 22.6037H10.4608V22.3037H9.20614V22.6037ZM26.0005 13.331H24.7459V13.631H26.0005V13.331ZM25.0759 14.339L26.0887 13.6023L25.9123 13.3597L24.8994 14.0964L25.0759 14.339ZM25.516 15.3689L25.1304 14.1717L24.8449 14.2637L25.2304 15.4609L25.516 15.3689ZM24.272 14.7994L25.285 15.5362L25.4614 15.2936L24.4484 14.5568L24.272 14.7994ZM23.4356 15.5362L24.4484 14.7994L24.272 14.5568L23.2591 15.2936L23.4356 15.5362ZM23.5901 14.1717L23.2046 15.3689L23.4901 15.4609L23.8757 14.2637L23.5901 14.1717ZM22.6317 13.6023L23.6447 14.339L23.8211 14.0964L22.8081 13.3597L22.6317 13.6023ZM23.9746 13.331H22.7199V13.631H23.9746V13.331ZM24.2175 12.2434L23.8319 13.4348L24.1174 13.5272L24.5029 12.3358L24.2175 12.2434ZM24.8886 13.4348L24.5029 12.2434L24.2175 12.3358L24.6032 13.5272L24.8886 13.4348ZM18.9371 4.55448L19.3227 3.36311L19.0372 3.27074L18.6517 4.46211L18.9371 4.55448ZM17.5397 4.65829H18.7944V4.35829H17.5397V4.65829ZM18.6413 5.12976L17.6283 4.38731L17.451 4.62928L18.464 5.37173L18.6413 5.12976ZM18.3098 6.4883L18.6954 5.29693L18.41 5.20456L18.0244 6.39593L18.3098 6.4883ZM19.0917 5.58413L18.0789 6.32081L18.2553 6.56342L19.2682 5.82674L19.0917 5.58413ZM20.2812 6.3208L19.2682 5.58412L19.0917 5.82675L20.1047 6.56343L20.2812 6.3208ZM19.6647 5.29693L20.0503 6.4883L20.3357 6.39593L19.9501 5.20456L19.6647 5.29693ZM20.7316 4.38732L19.7187 5.12977L19.8961 5.37172L20.9089 4.62927L20.7316 4.38732ZM19.5657 4.65829H20.8203V4.35829H19.5657V4.65829ZM19.0372 3.36312L19.423 4.5545L19.7084 4.46209L19.3227 3.27072L19.0372 3.36312ZM22.2038 8.99179L21.8182 10.1889L22.1038 10.2809L22.4893 9.08376L22.2038 8.99179ZM21.2453 8.42238L22.2583 9.15907L22.4348 8.91646L21.4217 8.17976L21.2453 8.42238ZM22.5826 8.15106H21.3335V8.45107H22.5826V8.15106ZM22.8313 7.0629L22.4401 8.25426L22.7251 8.34787L23.1163 7.1565L22.8313 7.0629ZM23.5023 8.25487L23.1165 7.06349L22.8311 7.1559L23.2168 8.34727L23.5023 8.25487ZM24.6141 8.15106H23.3595V8.45107H24.6141V8.15106ZM23.6895 9.15907L24.7023 8.42238L24.5259 8.17976L23.513 8.91646L23.6895 9.15907ZM24.1296 10.1889L23.7441 8.99179L23.4585 9.08376L23.8441 10.2809L24.1296 10.1889ZM22.8856 9.6195L23.8986 10.3562L24.0751 10.1136L23.062 9.37687L22.8856 9.6195ZM22.0492 10.3562L23.062 9.6195L22.8856 9.37689L21.8727 10.1136L22.0492 10.3562ZM22.8311 17.5158L23.2168 18.7072L23.5023 18.6148L23.1165 17.4234L22.8311 17.5158ZM22.7251 18.7078L23.1163 17.5164L22.8313 17.4228L22.4401 18.6142L22.7251 18.7078ZM21.3335 18.811H22.5826V18.511H21.3335V18.811ZM22.4347 19.2762L21.4217 18.5397L21.2453 18.7823L22.2583 19.5189L22.4347 19.2762ZM22.1038 20.6408L22.4893 19.4435L22.2038 19.3516L21.8182 20.5488L22.1038 20.6408ZM22.8856 19.7367L21.8727 20.4735L22.0492 20.7161L23.0621 19.9794L22.8856 19.7367ZM24.0751 20.4735L23.062 19.7367L22.8856 19.9794L23.8986 20.7161L24.0751 20.4735ZM23.4585 19.4435L23.8441 20.6408L24.1296 20.5488L23.7441 19.3516L23.4585 19.4435ZM24.5259 18.5397L23.5131 19.2762L23.6895 19.5189L24.7023 18.7823L24.5259 18.5397ZM23.3595 18.811H24.6141V18.511H23.3595V18.811ZM19.7084 22.4075L19.3227 21.2161L19.0372 21.3085L19.423 22.4999L19.7084 22.4075ZM20.8203 22.3037H19.5657V22.6037H20.8203V22.3037ZM19.8957 23.3117L20.9085 22.575L20.732 22.3324L19.7192 23.0691L19.8957 23.3117ZM20.3357 24.3415L19.9502 23.1445L19.6646 23.2364L20.0502 24.4335L20.3357 24.3415ZM19.0913 23.766L20.1043 24.5085L20.2816 24.2665L19.2686 23.5241L19.0913 23.766ZM18.2558 24.5085L19.2686 23.766L19.0913 23.5241L18.0784 24.2665L18.2558 24.5085ZM18.4099 23.1445L18.0243 24.3415L18.3099 24.4335L18.6954 23.2364L18.4099 23.1445ZM17.4514 22.575L18.4644 23.3118L18.6409 23.0691L17.6279 22.3324L17.4514 22.575ZM18.7944 22.3037H17.5397V22.6037H18.7944V22.3037ZM19.0372 21.2161L18.6517 22.4075L18.9371 22.4999L19.3227 21.3085L19.0372 21.2161Z" fill="#FFCC00"/>
</g>
</g>
</svg>
