<svg width="146" height="44" viewBox="0 0 146 44" fill="none" xmlns="http://www.w3.org/2000/svg">
<path d="M20.0336 0C12.6088 0 6.03506 3.60532 2 9.14392L6.08724 12.0586C9.207 7.77465 14.2908 4.98709 20.0336 4.98709C28.7405 4.98709 35.9329 11.3975 37.0615 19.7121H22.7253L24.4585 24.2879C24.6803 24.8599 24.9026 25.4759 24.9026 26.048C24.9026 27.2361 24.1027 27.6319 22.7253 27.6319H18.3259V16.3681H26.3247L28.058 11.7919H13.3484V32.2076H23.214C27.1246 32.2076 29.9247 30.4921 29.9247 26.9278C29.9247 26.1185 29.7019 25.0676 29.4776 24.2879H37.0615C35.9329 32.6025 28.7405 39.0129 20.0336 39.0129C14.2908 39.0129 9.207 36.2253 6.08724 31.9414L2 34.8556C6.03506 40.3947 12.6088 44 20.0336 44C32.3053 44 42.2537 34.1499 42.2537 21.9997C42.2537 9.84956 32.3053 0 20.0336 0Z" fill="white"/>
<path fill-rule="evenodd" clip-rule="evenodd" d="M54.6875 27.8298C56.3415 30.3582 59.2143 31.9962 62.871 31.9962C68.5008 31.9962 72.9408 27.6286 72.9408 21.9684C72.9408 16.3082 68.5299 11.9697 62.9869 11.9697C59.3016 11.9697 56.4865 13.6648 54.6875 16.1356L56.8056 17.9462C58.286 15.8773 60.3173 14.7568 62.9292 14.7568C66.3827 14.7568 69.1396 16.9113 69.6906 20.5321H61.3912V23.1755H69.7488C69.2556 26.8529 66.4404 29.2091 62.8419 29.2091C60.2305 29.2091 58.2569 28.0886 56.8056 26.0197L54.6875 27.8298ZM88.4084 20.3878C87.0736 18.405 85.1 17.2844 82.4304 17.2844C78.3095 17.2844 74.9434 20.56 74.9434 24.6112C74.9434 28.6914 78.0772 31.9955 82.3722 31.9955C85.1 31.9955 87.1318 30.8179 88.4084 28.8926L86.3771 27.111C85.3905 28.4327 84.0843 29.2084 82.4886 29.2084C79.9349 29.2084 78.0486 27.2261 78.0486 24.6112C78.0486 22.0253 79.9058 20.0715 82.4595 20.0715C84.0266 20.0715 85.3614 20.8472 86.3771 22.1689L88.4084 20.3878ZM96.3011 25.8756L92.6444 31.6794H89.1909L93.9215 24.3527L89.3655 17.6005H92.9058L96.3884 22.9449L99.8704 17.6005H103.324L98.768 24.3527L103.498 31.6794H99.9578L96.3011 25.8756ZM114.003 31.6799H116.847V23.2901C116.847 19.4972 114.554 17.2846 110.782 17.2846C107.619 17.2846 105.761 18.8651 104.658 20.1868L106.69 21.9679C107.415 21.0776 108.518 20.0146 110.405 20.0146C112.407 20.0146 113.771 21.1927 113.771 23.175V23.2036H109.795C106.603 23.2036 104.484 24.784 104.484 27.5426C104.484 30.1855 106.284 31.9962 109.186 31.9962C111.478 31.9962 113.364 31.0478 114.003 29.3813V31.6799ZM110.231 25.6458H113.771V26.1057C113.771 28.0595 112.03 29.3813 109.882 29.3813C108.402 29.3813 107.59 28.6055 107.59 27.485C107.59 26.1918 108.576 25.6458 110.231 25.6458ZM123.143 20.33H118.151V17.6005H131.181V20.33H126.19V31.6794H123.143V20.33ZM141.658 31.6799H144.502V23.2901C144.502 19.4972 142.209 17.2846 138.436 17.2846C135.274 17.2846 133.416 18.8651 132.313 20.1868L134.345 21.9679C135.07 21.0776 136.173 20.0146 138.06 20.0146C140.062 20.0146 141.426 21.1927 141.426 23.175V23.2036H137.45C134.258 23.2036 132.139 24.784 132.139 27.5426C132.139 30.1855 133.939 31.9962 136.841 31.9962C139.133 31.9962 141.019 31.0478 141.658 29.3813V31.6799ZM137.885 25.6458H141.426V26.1057C141.426 28.0595 139.684 29.3813 137.537 29.3813C136.057 29.3813 135.244 28.6055 135.244 27.485C135.244 26.1918 136.231 25.6458 137.885 25.6458Z" fill="white"/>
</svg>
