<svg width="28" height="28" viewBox="0 0 28 28" fill="none" xmlns="http://www.w3.org/2000/svg">
<mask id="mask0_1_124" style="mask-type:luminance" maskUnits="userSpaceOnUse" x="0" y="0" width="28" height="28">
<path d="M28 0H0V28H28V0Z" fill="white"/>
</mask>
<g mask="url(#mask0_1_124)">
<mask id="mask1_1_124" style="mask-type:luminance" maskUnits="userSpaceOnUse" x="0" y="0" width="28" height="29">
<path d="M28 0.0844727H0V28.0845H28V0.0844727Z" fill="white"/>
</mask>
<g mask="url(#mask1_1_124)">
<path d="M14 28.0844C21.732 28.0844 28 21.8165 28 14.0845C28 6.35249 21.732 0.0844727 14 0.0844727C6.26802 0.0844727 0 6.35249 0 14.0845C0 21.8165 6.26802 28.0844 14 28.0844Z" fill="white"/>
<path d="M13.3906 14.0841H27.9993C27.9993 12.8205 27.8309 11.5964 27.5169 10.4319H13.3906V14.0841Z" fill="#D80027"/>
<path d="M13.3906 6.77939H25.9444C25.0875 5.38092 23.9918 4.14481 22.714 3.1272H13.3906V6.77939Z" fill="#D80027"/>
<path d="M13.9999 28.0844C17.2947 28.0844 20.3232 26.9456 22.7148 25.041H5.28516C7.67664 26.9456 10.7051 28.0844 13.9999 28.0844Z" fill="#D80027"/>
<path d="M2.05692 21.3874H25.9473C26.6353 20.2648 27.1689 19.0376 27.5198 17.7351H0.484375C0.835304 19.0376 1.36889 20.2648 2.05692 21.3874Z" fill="#D80027"/>
<path d="M6.48506 2.27077H7.76087L6.57415 3.13292L7.02746 4.52795L5.84078 3.6658L4.65413 4.52795L5.04569 3.3228C4.00083 4.19314 3.08502 5.21284 2.33035 6.34904H2.73913L1.98374 6.89782C1.86604 7.09415 1.75317 7.2936 1.645 7.49599L2.00572 8.60621L1.33273 8.11725C1.16545 8.47167 1.01243 8.8341 0.874891 9.20406L1.2723 10.4273H2.73913L1.55241 11.2894L2.00572 12.6845L0.819054 11.8223L0.108227 12.3388C0.0370781 12.9107 0 13.4933 0 14.0845H14C14 6.35254 14 5.44101 14 0.0844727C11.2343 0.0844727 8.65622 0.886733 6.48506 2.27077ZM7.02746 12.6845L5.84078 11.8223L4.65413 12.6845L5.10743 11.2894L3.92072 10.4273H5.38754L5.84078 9.03228L6.29404 10.4273H7.76087L6.57415 11.2894L7.02746 12.6845ZM6.57415 7.21119L7.02746 8.60621L5.84078 7.74406L4.65413 8.60621L5.10743 7.21119L3.92072 6.34904H5.38754L5.84078 4.95401L6.29404 6.34904H7.76087L6.57415 7.21119ZM12.0492 12.6845L10.8625 11.8223L9.67585 12.6845L10.1292 11.2894L8.94244 10.4273H10.4093L10.8625 9.03228L11.3158 10.4273H12.7826L11.5959 11.2894L12.0492 12.6845ZM11.5959 7.21119L12.0492 8.60621L10.8625 7.74406L9.67585 8.60621L10.1292 7.21119L8.94244 6.34904H10.4093L10.8625 4.95401L11.3158 6.34904H12.7826L11.5959 7.21119ZM11.5959 3.13292L12.0492 4.52795L10.8625 3.6658L9.67585 4.52795L10.1292 3.13292L8.94244 2.27077H10.4093L10.8625 0.875751L11.3158 2.27077H12.7826L11.5959 3.13292Z" fill="#0052B4"/>
</g>
</g>
</svg>
